<?xml version="1.0" encoding="utf-8"?>
<svg width="159px" height="27px" viewBox="0 0 159 27" version="1.1" xmlns="http://www.w3.org/2000/svg">
  <title>PaymentButtons</title>
  <g id="Page-1" stroke="none" stroke-width="1" fill="none" fill-rule="evenodd">
    <g id="Inner">
      <rect id="ButtonBack" fill="#4C64F4" x="0" y="0" width="159" height="27" rx="13.5"/>
      <path d="M 69.679 15.66 C 69.429 15.948 69.119 16.176 68.751 16.344 C 68.383 16.512 67.959 16.596 67.479 16.596 C 67.042 16.596 66.638 16.524 66.267 16.38 C 65.897 16.236 65.575 16.032 65.303 15.768 C 65.031 15.504 64.818 15.188 64.663 14.82 C 64.509 14.452 64.431 14.047 64.431 13.604 C 64.431 13.151 64.51 12.74 64.667 12.372 C 64.825 12.004 65.042 11.691 65.319 11.432 C 65.597 11.174 65.922 10.975 66.295 10.836 C 66.669 10.698 67.071 10.628 67.503 10.628 C 67.903 10.628 68.297 10.699 68.683 10.84 C 69.07 10.982 69.383 11.188 69.623 11.46 L 68.695 12.388 C 68.567 12.212 68.399 12.082 68.191 11.996 C 67.983 11.911 67.77 11.868 67.551 11.868 C 67.311 11.868 67.091 11.912 66.891 12 C 66.691 12.088 66.519 12.21 66.375 12.364 C 66.231 12.519 66.119 12.702 66.039 12.912 C 65.959 13.123 65.919 13.354 65.919 13.604 C 65.919 13.86 65.959 14.095 66.039 14.308 C 66.119 14.522 66.23 14.704 66.371 14.856 C 66.513 15.008 66.682 15.127 66.879 15.212 C 67.077 15.298 67.293 15.34 67.527 15.34 C 67.799 15.34 68.037 15.287 68.239 15.18 C 68.442 15.074 68.605 14.935 68.727 14.764 L 69.679 15.66 Z M 75.063 14.308 C 75.063 14.65 75.006 14.96 74.891 15.24 C 74.776 15.52 74.612 15.76 74.399 15.96 C 74.186 16.16 73.928 16.316 73.627 16.428 C 73.326 16.54 72.991 16.596 72.623 16.596 C 72.25 16.596 71.914 16.54 71.615 16.428 C 71.316 16.316 71.063 16.16 70.855 15.96 C 70.647 15.76 70.487 15.52 70.375 15.24 C 70.263 14.96 70.207 14.65 70.207 14.308 L 70.207 10.78 L 71.567 10.78 L 71.567 14.196 C 71.567 14.351 71.587 14.498 71.627 14.636 C 71.667 14.775 71.728 14.899 71.811 15.008 C 71.894 15.118 72.003 15.204 72.139 15.268 C 72.275 15.332 72.439 15.364 72.631 15.364 C 72.823 15.364 72.987 15.332 73.123 15.268 C 73.259 15.204 73.37 15.118 73.455 15.008 C 73.54 14.899 73.602 14.775 73.639 14.636 C 73.676 14.498 73.695 14.351 73.695 14.196 L 73.695 10.78 L 75.063 10.78 L 75.063 14.308 Z M 82.071 13.588 C 82.071 14.036 81.993 14.446 81.839 14.816 C 81.684 15.187 81.469 15.504 81.195 15.768 C 80.92 16.032 80.593 16.236 80.215 16.38 C 79.836 16.524 79.425 16.596 78.983 16.596 C 78.54 16.596 78.131 16.524 77.755 16.38 C 77.379 16.236 77.053 16.032 76.779 15.768 C 76.504 15.504 76.289 15.187 76.135 14.816 C 75.98 14.446 75.903 14.036 75.903 13.588 C 75.903 13.135 75.98 12.726 76.135 12.36 C 76.289 11.995 76.504 11.684 76.779 11.428 C 77.053 11.172 77.379 10.975 77.755 10.836 C 78.131 10.698 78.54 10.628 78.983 10.628 C 79.425 10.628 79.836 10.698 80.215 10.836 C 80.593 10.975 80.92 11.172 81.195 11.428 C 81.469 11.684 81.684 11.995 81.839 12.36 C 81.993 12.726 82.071 13.135 82.071 13.588 Z M 80.607 13.588 C 80.607 13.343 80.567 13.114 80.487 12.9 C 80.407 12.687 80.296 12.504 80.155 12.352 C 80.013 12.2 79.843 12.08 79.643 11.992 C 79.443 11.904 79.223 11.86 78.983 11.86 C 78.743 11.86 78.524 11.904 78.327 11.992 C 78.129 12.08 77.959 12.2 77.815 12.352 C 77.671 12.504 77.56 12.687 77.483 12.9 C 77.405 13.114 77.367 13.343 77.367 13.588 C 77.367 13.844 77.407 14.08 77.487 14.296 C 77.567 14.512 77.677 14.698 77.819 14.852 C 77.96 15.007 78.129 15.128 78.327 15.216 C 78.524 15.304 78.743 15.348 78.983 15.348 C 79.223 15.348 79.441 15.304 79.639 15.216 C 79.836 15.128 80.007 15.007 80.151 14.852 C 80.295 14.698 80.407 14.512 80.487 14.296 C 80.567 14.08 80.607 13.844 80.607 13.588 Z M 85.159 11.948 L 85.159 16.444 L 83.791 16.444 L 83.791 11.948 L 82.191 11.948 L 82.191 10.78 L 86.759 10.78 L 86.759 11.948 Z M 90.742 16.444 L 90.302 15.332 L 88.11 15.332 L 87.694 16.444 L 86.206 16.444 L 88.582 10.78 L 89.91 10.78 L 92.262 16.444 Z M 89.222 12.292 L 88.502 14.236 L 89.926 14.236 Z M 95.726 12.252 C 95.609 12.103 95.455 11.984 95.266 11.896 C 95.077 11.808 94.894 11.764 94.718 11.764 C 94.627 11.764 94.535 11.772 94.442 11.788 C 94.349 11.804 94.265 11.835 94.19 11.88 C 94.115 11.926 94.053 11.984 94.002 12.056 C 93.951 12.128 93.926 12.22 93.926 12.332 C 93.926 12.428 93.946 12.508 93.986 12.572 C 94.026 12.636 94.085 12.692 94.162 12.74 C 94.239 12.788 94.331 12.832 94.438 12.872 C 94.545 12.912 94.665 12.954 94.798 12.996 C 94.99 13.06 95.19 13.131 95.398 13.208 C 95.606 13.286 95.795 13.388 95.966 13.516 C 96.137 13.644 96.278 13.803 96.39 13.992 C 96.502 14.182 96.558 14.418 96.558 14.7 C 96.558 15.026 96.498 15.307 96.378 15.544 C 96.258 15.782 96.097 15.978 95.894 16.132 C 95.691 16.287 95.459 16.402 95.198 16.476 C 94.937 16.551 94.667 16.588 94.39 16.588 C 93.985 16.588 93.593 16.518 93.214 16.376 C 92.835 16.235 92.521 16.034 92.27 15.772 L 93.166 14.86 C 93.305 15.031 93.487 15.174 93.714 15.288 C 93.941 15.403 94.166 15.46 94.39 15.46 C 94.491 15.46 94.59 15.45 94.686 15.428 C 94.782 15.407 94.866 15.372 94.938 15.324 C 95.01 15.276 95.067 15.212 95.11 15.132 C 95.153 15.052 95.174 14.956 95.174 14.844 C 95.174 14.738 95.147 14.647 95.094 14.572 C 95.041 14.498 94.965 14.43 94.866 14.368 C 94.767 14.307 94.645 14.251 94.498 14.2 C 94.351 14.15 94.185 14.095 93.998 14.036 C 93.817 13.978 93.639 13.908 93.466 13.828 C 93.293 13.748 93.138 13.646 93.002 13.52 C 92.866 13.395 92.757 13.243 92.674 13.064 C 92.591 12.886 92.55 12.668 92.55 12.412 C 92.55 12.098 92.614 11.828 92.742 11.604 C 92.87 11.38 93.038 11.196 93.246 11.052 C 93.454 10.908 93.689 10.803 93.95 10.736 C 94.211 10.67 94.475 10.636 94.742 10.636 C 95.062 10.636 95.389 10.695 95.722 10.812 C 96.055 10.93 96.347 11.103 96.598 11.332 Z M 104.446 15.66 C 104.195 15.948 103.886 16.176 103.518 16.344 C 103.15 16.512 102.726 16.596 102.246 16.596 C 101.808 16.596 101.404 16.524 101.034 16.38 C 100.663 16.236 100.342 16.032 100.07 15.768 C 99.798 15.504 99.584 15.188 99.43 14.82 C 99.275 14.452 99.198 14.047 99.198 13.604 C 99.198 13.151 99.276 12.74 99.434 12.372 C 99.591 12.004 99.808 11.691 100.086 11.432 C 100.363 11.174 100.688 10.975 101.062 10.836 C 101.435 10.698 101.838 10.628 102.27 10.628 C 102.67 10.628 103.063 10.699 103.45 10.84 C 103.836 10.982 104.15 11.188 104.39 11.46 L 103.462 12.388 C 103.334 12.212 103.166 12.082 102.958 11.996 C 102.75 11.911 102.536 11.868 102.318 11.868 C 102.078 11.868 101.858 11.912 101.658 12 C 101.458 12.088 101.286 12.21 101.142 12.364 C 100.998 12.519 100.886 12.702 100.806 12.912 C 100.726 13.123 100.686 13.354 100.686 13.604 C 100.686 13.86 100.726 14.095 100.806 14.308 C 100.886 14.522 100.996 14.704 101.138 14.856 C 101.279 15.008 101.448 15.127 101.646 15.212 C 101.843 15.298 102.059 15.34 102.294 15.34 C 102.566 15.34 102.803 15.287 103.006 15.18 C 103.208 15.074 103.371 14.935 103.494 14.764 L 104.446 15.66 Z M 110.837 13.588 C 110.837 14.036 110.76 14.446 110.605 14.816 C 110.451 15.187 110.236 15.504 109.961 15.768 C 109.687 16.032 109.36 16.236 108.981 16.38 C 108.603 16.524 108.192 16.596 107.749 16.596 C 107.307 16.596 106.897 16.524 106.521 16.38 C 106.145 16.236 105.82 16.032 105.545 15.768 C 105.271 15.504 105.056 15.187 104.901 14.816 C 104.747 14.446 104.669 14.036 104.669 13.588 C 104.669 13.135 104.747 12.726 104.901 12.36 C 105.056 11.995 105.271 11.684 105.545 11.428 C 105.82 11.172 106.145 10.975 106.521 10.836 C 106.897 10.698 107.307 10.628 107.749 10.628 C 108.192 10.628 108.603 10.698 108.981 10.836 C 109.36 10.975 109.687 11.172 109.961 11.428 C 110.236 11.684 110.451 11.995 110.605 12.36 C 110.76 12.726 110.837 13.135 110.837 13.588 Z M 109.373 13.588 C 109.373 13.343 109.333 13.114 109.253 12.9 C 109.173 12.687 109.063 12.504 108.921 12.352 C 108.78 12.2 108.609 12.08 108.409 11.992 C 108.209 11.904 107.989 11.86 107.749 11.86 C 107.509 11.86 107.291 11.904 107.093 11.992 C 106.896 12.08 106.725 12.2 106.581 12.352 C 106.437 12.504 106.327 12.687 106.249 12.9 C 106.172 13.114 106.133 13.343 106.133 13.588 C 106.133 13.844 106.173 14.08 106.253 14.296 C 106.333 14.512 106.444 14.698 106.585 14.852 C 106.727 15.007 106.896 15.128 107.093 15.216 C 107.291 15.304 107.509 15.348 107.749 15.348 C 107.989 15.348 108.208 15.304 108.405 15.216 C 108.603 15.128 108.773 15.007 108.917 14.852 C 109.061 14.698 109.173 14.512 109.253 14.296 C 109.333 14.08 109.373 13.844 109.373 13.588 Z M 115.341 16.444 L 113.061 12.74 L 113.037 12.74 L 113.069 16.444 L 111.741 16.444 L 111.741 10.78 L 113.301 10.78 L 115.573 14.476 L 115.597 14.476 L 115.565 10.78 L 116.893 10.78 L 116.893 16.444 Z M 125.349 13.596 C 125.349 14.092 125.257 14.52 125.073 14.88 C 124.889 15.24 124.646 15.536 124.345 15.768 C 124.043 16 123.703 16.171 123.325 16.28 C 122.946 16.39 122.562 16.444 122.173 16.444 L 120.061 16.444 L 120.061 10.78 L 122.109 10.78 C 122.509 10.78 122.903 10.827 123.293 10.92 C 123.682 11.014 124.029 11.168 124.333 11.384 C 124.637 11.6 124.882 11.89 125.069 12.252 C 125.255 12.615 125.349 13.063 125.349 13.596 Z M 123.925 13.596 C 123.925 13.276 123.873 13.011 123.769 12.8 C 123.665 12.59 123.526 12.422 123.353 12.296 C 123.179 12.171 122.982 12.082 122.761 12.028 C 122.539 11.975 122.311 11.948 122.077 11.948 L 121.397 11.948 L 121.397 15.26 L 122.045 15.26 C 122.29 15.26 122.526 15.232 122.753 15.176 C 122.979 15.12 123.179 15.028 123.353 14.9 C 123.526 14.772 123.665 14.602 123.769 14.388 C 123.873 14.175 123.925 13.911 123.925 13.596 Z M 126.252 16.444 L 126.252 10.78 L 130.06 10.78 L 130.06 11.94 L 127.572 11.94 L 127.572 13.004 L 129.924 13.004 L 129.924 14.1 L 127.572 14.1 L 127.572 15.276 L 130.204 15.276 L 130.204 16.444 Z M 128.524 10.332 L 127.532 10.332 L 128.364 9.18 L 129.692 9.18 Z M 135.524 14.796 C 135.524 15.106 135.463 15.366 135.34 15.576 C 135.218 15.787 135.055 15.956 134.852 16.084 C 134.65 16.212 134.419 16.304 134.16 16.36 C 133.902 16.416 133.636 16.444 133.364 16.444 L 131.108 16.444 L 131.108 10.78 L 133.364 10.78 C 133.583 10.78 133.807 10.803 134.036 10.848 C 134.266 10.894 134.474 10.971 134.66 11.08 C 134.847 11.19 134.999 11.338 135.116 11.524 C 135.234 11.711 135.292 11.948 135.292 12.236 C 135.292 12.551 135.207 12.811 135.036 13.016 C 134.866 13.222 134.642 13.37 134.364 13.46 L 134.364 13.476 C 134.524 13.503 134.675 13.552 134.816 13.624 C 134.958 13.696 135.08 13.788 135.184 13.9 C 135.288 14.012 135.371 14.143 135.432 14.292 C 135.494 14.442 135.524 14.61 135.524 14.796 Z M 133.972 12.42 C 133.972 12.228 133.899 12.088 133.752 12 C 133.606 11.912 133.388 11.868 133.1 11.868 L 132.428 11.868 L 132.428 13.036 L 133.164 13.036 C 133.42 13.036 133.619 12.984 133.76 12.88 C 133.902 12.776 133.972 12.623 133.972 12.42 Z M 134.156 14.668 C 134.156 14.434 134.068 14.271 133.892 14.18 C 133.716 14.09 133.482 14.044 133.188 14.044 L 132.428 14.044 L 132.428 15.34 L 133.196 15.34 C 133.303 15.34 133.414 15.331 133.528 15.312 C 133.643 15.294 133.747 15.26 133.84 15.212 C 133.934 15.164 134.01 15.096 134.068 15.008 C 134.127 14.92 134.156 14.807 134.156 14.668 Z M 136.428 16.444 L 136.428 10.78 L 137.804 10.78 L 137.804 16.444 Z M 141.396 11.948 L 141.396 16.444 L 140.028 16.444 L 140.028 11.948 L 138.428 11.948 L 138.428 10.78 L 142.996 10.78 L 142.996 11.948 Z M 149.284 13.588 C 149.284 14.036 149.206 14.446 149.052 14.816 C 148.897 15.187 148.682 15.504 148.408 15.768 C 148.133 16.032 147.806 16.236 147.428 16.38 C 147.049 16.524 146.638 16.596 146.196 16.596 C 145.753 16.596 145.344 16.524 144.968 16.38 C 144.592 16.236 144.266 16.032 143.992 15.768 C 143.717 15.504 143.502 15.187 143.348 14.816 C 143.193 14.446 143.116 14.036 143.116 13.588 C 143.116 13.135 143.193 12.726 143.348 12.36 C 143.502 11.995 143.717 11.684 143.992 11.428 C 144.266 11.172 144.592 10.975 144.968 10.836 C 145.344 10.698 145.753 10.628 146.196 10.628 C 146.638 10.628 147.049 10.698 147.428 10.836 C 147.806 10.975 148.133 11.172 148.408 11.428 C 148.682 11.684 148.897 11.995 149.052 12.36 C 149.206 12.726 149.284 13.135 149.284 13.588 Z M 147.82 13.588 C 147.82 13.343 147.78 13.114 147.7 12.9 C 147.62 12.687 147.509 12.504 147.368 12.352 C 147.226 12.2 147.056 12.08 146.856 11.992 C 146.656 11.904 146.436 11.86 146.196 11.86 C 145.956 11.86 145.737 11.904 145.54 11.992 C 145.342 12.08 145.172 12.2 145.028 12.352 C 144.884 12.504 144.773 12.687 144.696 12.9 C 144.618 13.114 144.58 13.343 144.58 13.588 C 144.58 13.844 144.62 14.08 144.7 14.296 C 144.78 14.512 144.89 14.698 145.032 14.852 C 145.173 15.007 145.342 15.128 145.54 15.216 C 145.737 15.304 145.956 15.348 146.196 15.348 C 146.436 15.348 146.654 15.304 146.852 15.216 C 147.049 15.128 147.22 15.007 147.364 14.852 C 147.508 14.698 147.62 14.512 147.7 14.296 C 147.78 14.08 147.82 13.844 147.82 13.588 Z" style="fill: rgb(255, 255, 255); white-space: pre;"/>
      <g id="logo-venti-white" transform="translate(8.912556, 8.506849)" fill="#FFFFFF" fill-rule="nonzero">
        <path d="M4.33079164,9.98608788 C3.90352959,9.99031205 3.52281063,9.70699684 3.38964107,9.28572279 L0.0941960855,1.24918058 C0.0349232687,1.12305261 0.00278250834,0.985062529 0,0.84476809 C0.00200450601,0.618180421 0.0914172244,0.401872186 0.248253019,0.244191647 C0.405088813,0.0865111075 0.616271183,0.000605197643 0.834597575,0.00567522728 C1.21656385,-0.00533494075 1.56046295,0.244366023 1.68134948,0.620491516 L4.39845076,7.66828302 L7.15606649,0.565000404 C7.28431895,0.227084457 7.59892682,0.00514565887 7.94893419,0.00567522728 C8.16378079,0.000489088213 8.37165726,0.0849237535 8.52601643,0.240072822 C8.68037559,0.39522189 8.76832167,0.608123592 8.77016199,0.831105506 C8.76501074,0.955722515 8.73753241,1.07825346 8.6891331,1.19242831 L5.37971063,9.28572279 C5.24378625,9.71124057 4.8565214,9.99520959 4.42458258,9.98608788 L4.33079164,9.98608788 Z M32.4856977,9.06291757 L32.4856977,1.66746585 L30.1990625,1.66746585 C29.9222002,1.67213582 29.664421,1.52154827 29.5246743,1.27350677 C29.3849276,1.02546527 29.3849276,0.718511054 29.5246743,0.470469551 C29.664421,0.222428048 29.9222002,0.0718405078 30.1990625,0.0765104714 L36.4540877,0.0765104714 C36.87263,0.0835702175 37.2083612,0.437641624 37.2083612,0.871988161 C37.2083612,1.3063347 36.87263,1.66040611 36.4540877,1.66746585 L34.1536775,1.66746585 L34.1536775,9.06291757 C34.1465782,9.53553067 33.7753209,9.91479821 33.3197889,9.91479821 C32.8642569,9.91479821 32.4929996,9.53553067 32.4859003,9.06291757 L32.4856977,9.06291757 Z M19.5413324,9.07700055 L19.5413324,0.885335455 C19.5405762,0.655826334 19.6280802,0.435484854 19.7844462,0.273156996 C19.9408121,0.110829139 20.1531217,0.0199258937 20.3743094,0.0205989731 L20.5491293,0.0205989731 C20.9542737,0.0205989731 21.1809521,0.229741608 21.4100612,0.523171877 L26.1174346,6.84621584 L26.1174346,0.844557896 C26.1174346,0.37829558 26.4817098,0.000315290404 26.931066,0.000315290404 C27.3804222,0.000315290404 27.7446973,0.37829558 27.7446973,0.844557896 L27.7446973,9.04946518 C27.7493905,9.2741872 27.6665144,9.49137079 27.5148319,9.65184609 C27.3631494,9.8123214 27.1554892,9.90251614 26.938865,9.90201044 L26.8708008,9.90201044 C26.4810518,9.90201044 26.238978,9.69181683 26.0102739,9.38367301 L21.1687977,2.88196449 L21.1687977,9.07700055 C21.1617853,9.53818478 20.7994813,9.90823517 20.3549638,9.90823517 C19.9104463,9.90823517 19.5481423,9.53818478 19.5411299,9.07700055 L19.5413324,9.07700055 Z M38.9866457,9.06312777 L38.9866457,0.858430674 C38.9866457,0.384332504 39.3570427,0 39.8139506,0 C40.2708586,0 40.6412556,0.384332504 40.6412556,0.858430674 L40.6412556,9.06312777 C40.6412556,9.53722594 40.2708586,9.92155844 39.8139506,9.92155844 C39.3570427,9.92155844 38.9866457,9.53722594 38.9866457,9.06312777 Z M11.3164949,9.83516887 C10.8979525,9.82810912 10.5622213,9.47403772 10.5622213,9.03969118 C10.5622213,8.60534464 10.8979525,8.25127324 11.3164949,8.24421349 L16.8254466,8.24421349 C17.2439889,8.25127324 17.5797202,8.60534464 17.5797202,9.03969118 C17.5797202,9.47403772 17.2439889,9.82810912 16.8254466,9.83516887 L11.3164949,9.83516887 Z M11.3164949,5.75110717 C10.8930943,5.75110717 10.5498603,5.39495967 10.5498603,4.95562948 C10.5498603,4.51629928 10.8930943,4.16015179 11.3164949,4.16015179 L16.8254466,4.16015179 C17.2439889,4.16721153 17.5797202,4.52128294 17.5797202,4.95562948 C17.5797202,5.38997601 17.2439889,5.74404742 16.8254466,5.75110717 L11.3164949,5.75110717 Z M11.3164949,1.66725566 C10.8979525,1.66019591 10.5622213,1.30612451 10.5622213,0.871777968 C10.5622213,0.437431431 10.8979525,0.0833600239 11.3164949,0.0763002778 L16.8254466,0.0763002778 C17.2439889,0.0833600239 17.5797202,0.437431431 17.5797202,0.871777968 C17.5797202,1.30612451 17.2439889,1.66019591 16.8254466,1.66725566 L11.3164949,1.66725566 Z" id="Union_1"/>
      </g>
    </g>
  </g>
</svg>