<?xml version="1.0" encoding="utf-8"?>
<svg width="159px" height="27px" viewBox="0 0 159 27" version="1.1" xmlns="http://www.w3.org/2000/svg">
  <title>CardButton-es</title>
  <g id="Page-1" stroke="none" stroke-width="1" fill="none" fill-rule="evenodd">
    <g id="Inner">
      <rect id="ButtonBack" fill="#4C64F4" x="0" y="0" width="159" height="27" rx="13.5"/>
      <path d="M 78.863 16.103 C 78.612 16.391 78.303 16.619 77.935 16.787 C 77.567 16.955 77.143 17.039 76.663 17.039 C 76.226 17.039 75.822 16.967 75.451 16.823 C 75.08 16.679 74.759 16.475 74.487 16.211 C 74.215 15.947 74.002 15.631 73.847 15.263 C 73.692 14.895 73.615 14.49 73.615 14.047 C 73.615 13.594 73.694 13.183 73.851 12.815 C 74.008 12.447 74.226 12.134 74.503 11.875 C 74.78 11.617 75.106 11.418 75.479 11.279 C 75.852 11.141 76.255 11.071 76.687 11.071 C 77.087 11.071 77.48 11.142 77.867 11.283 C 78.254 11.425 78.567 11.631 78.807 11.903 L 77.879 12.831 C 77.751 12.655 77.583 12.525 77.375 12.439 C 77.167 12.354 76.954 12.311 76.735 12.311 C 76.495 12.311 76.275 12.355 76.075 12.443 C 75.875 12.531 75.703 12.653 75.559 12.807 C 75.415 12.962 75.303 13.145 75.223 13.355 C 75.143 13.566 75.103 13.797 75.103 14.047 C 75.103 14.303 75.143 14.538 75.223 14.751 C 75.303 14.965 75.414 15.147 75.555 15.299 C 75.696 15.451 75.866 15.57 76.063 15.655 C 76.26 15.741 76.476 15.783 76.711 15.783 C 76.983 15.783 77.22 15.73 77.423 15.623 C 77.626 15.517 77.788 15.378 77.911 15.207 L 78.863 16.103 Z M 82.479 16.887 L 81.255 14.639 L 80.791 14.639 L 80.791 16.887 L 79.447 16.887 L 79.447 11.223 L 81.607 11.223 C 81.879 11.223 82.144 11.251 82.403 11.307 C 82.662 11.363 82.894 11.458 83.099 11.591 C 83.304 11.725 83.468 11.901 83.591 12.119 C 83.714 12.338 83.775 12.61 83.775 12.935 C 83.775 13.319 83.671 13.642 83.463 13.903 C 83.255 14.165 82.967 14.351 82.599 14.463 L 84.079 16.887 Z M 82.423 12.959 C 82.423 12.826 82.395 12.718 82.339 12.635 C 82.283 12.553 82.211 12.489 82.123 12.443 C 82.035 12.398 81.936 12.367 81.827 12.351 C 81.718 12.335 81.612 12.327 81.511 12.327 L 80.783 12.327 L 80.783 13.647 L 81.431 13.647 C 81.543 13.647 81.658 13.638 81.775 13.619 C 81.892 13.601 81.999 13.567 82.095 13.519 C 82.191 13.471 82.27 13.402 82.331 13.311 C 82.392 13.221 82.423 13.103 82.423 12.959 Z M 84.751 16.887 L 84.751 11.223 L 88.559 11.223 L 88.559 12.383 L 86.071 12.383 L 86.071 13.447 L 88.423 13.447 L 88.423 14.543 L 86.071 14.543 L 86.071 15.719 L 88.703 15.719 L 88.703 16.887 Z M 87.023 10.775 L 86.031 10.775 L 86.863 9.623 L 88.191 9.623 Z M 94.895 14.039 C 94.895 14.535 94.803 14.963 94.619 15.323 C 94.435 15.683 94.192 15.979 93.891 16.211 C 93.59 16.443 93.25 16.614 92.871 16.723 C 92.492 16.833 92.108 16.887 91.719 16.887 L 89.607 16.887 L 89.607 11.223 L 91.655 11.223 C 92.055 11.223 92.45 11.27 92.839 11.363 C 93.228 11.457 93.575 11.611 93.879 11.827 C 94.183 12.043 94.428 12.333 94.615 12.695 C 94.802 13.058 94.895 13.506 94.895 14.039 Z M 93.471 14.039 C 93.471 13.719 93.419 13.454 93.315 13.243 C 93.211 13.033 93.072 12.865 92.899 12.739 C 92.726 12.614 92.528 12.525 92.307 12.471 C 92.086 12.418 91.858 12.391 91.623 12.391 L 90.943 12.391 L 90.943 15.703 L 91.591 15.703 C 91.836 15.703 92.072 15.675 92.299 15.619 C 92.526 15.563 92.726 15.471 92.899 15.343 C 93.072 15.215 93.211 15.045 93.315 14.831 C 93.419 14.618 93.471 14.354 93.471 14.039 Z M 95.799 16.887 L 95.799 11.223 L 97.175 11.223 L 97.175 16.887 Z M 100.767 12.391 L 100.767 16.887 L 99.399 16.887 L 99.399 12.391 L 97.799 12.391 L 97.799 11.223 L 102.367 11.223 L 102.367 12.391 Z M 108.655 14.031 C 108.655 14.479 108.577 14.889 108.423 15.259 C 108.268 15.63 108.053 15.947 107.779 16.211 C 107.504 16.475 107.177 16.679 106.799 16.823 C 106.42 16.967 106.009 17.039 105.567 17.039 C 105.124 17.039 104.715 16.967 104.339 16.823 C 103.963 16.679 103.637 16.475 103.363 16.211 C 103.088 15.947 102.873 15.63 102.719 15.259 C 102.564 14.889 102.487 14.479 102.487 14.031 C 102.487 13.578 102.564 13.169 102.719 12.803 C 102.873 12.438 103.088 12.127 103.363 11.871 C 103.637 11.615 103.963 11.418 104.339 11.279 C 104.715 11.141 105.124 11.071 105.567 11.071 C 106.009 11.071 106.42 11.141 106.799 11.279 C 107.177 11.418 107.504 11.615 107.779 11.871 C 108.053 12.127 108.268 12.438 108.423 12.803 C 108.577 13.169 108.655 13.578 108.655 14.031 Z M 107.191 14.031 C 107.191 13.786 107.151 13.557 107.071 13.343 C 106.991 13.13 106.88 12.947 106.739 12.795 C 106.597 12.643 106.427 12.523 106.227 12.435 C 106.027 12.347 105.807 12.303 105.567 12.303 C 105.327 12.303 105.108 12.347 104.911 12.435 C 104.713 12.523 104.543 12.643 104.399 12.795 C 104.255 12.947 104.144 13.13 104.067 13.343 C 103.989 13.557 103.951 13.786 103.951 14.031 C 103.951 14.287 103.991 14.523 104.071 14.739 C 104.151 14.955 104.261 15.141 104.403 15.295 C 104.544 15.45 104.713 15.571 104.911 15.659 C 105.108 15.747 105.327 15.791 105.567 15.791 C 105.807 15.791 106.025 15.747 106.223 15.659 C 106.42 15.571 106.591 15.45 106.735 15.295 C 106.879 15.141 106.991 14.955 107.071 14.739 C 107.151 14.523 107.191 14.287 107.191 14.031 Z M 115.559 16.887 L 115.023 16.335 C 114.841 16.527 114.619 16.686 114.355 16.811 C 114.091 16.937 113.761 16.999 113.367 16.999 C 113.111 16.999 112.86 16.966 112.615 16.899 C 112.369 16.833 112.152 16.729 111.963 16.587 C 111.773 16.446 111.621 16.27 111.507 16.059 C 111.392 15.849 111.335 15.599 111.335 15.311 C 111.335 15.114 111.367 14.933 111.431 14.767 C 111.495 14.602 111.581 14.455 111.691 14.327 C 111.8 14.199 111.927 14.087 112.071 13.991 C 112.215 13.895 112.364 13.813 112.519 13.743 C 112.343 13.573 112.201 13.386 112.095 13.183 C 111.988 12.981 111.935 12.757 111.935 12.511 C 111.935 12.255 111.988 12.037 112.095 11.855 C 112.201 11.674 112.339 11.525 112.507 11.407 C 112.675 11.29 112.864 11.205 113.075 11.151 C 113.285 11.098 113.495 11.071 113.703 11.071 C 113.916 11.071 114.127 11.099 114.335 11.155 C 114.543 11.211 114.728 11.298 114.891 11.415 C 115.053 11.533 115.184 11.682 115.283 11.863 C 115.381 12.045 115.431 12.261 115.431 12.511 C 115.431 12.693 115.401 12.857 115.343 13.003 C 115.284 13.15 115.203 13.283 115.099 13.403 C 114.995 13.523 114.873 13.631 114.735 13.727 C 114.596 13.823 114.449 13.911 114.295 13.991 L 115.007 14.719 L 115.575 13.847 L 117.031 13.847 L 115.807 15.487 L 117.215 16.887 Z M 114.255 12.551 C 114.255 12.407 114.207 12.285 114.111 12.183 C 114.015 12.082 113.884 12.031 113.719 12.031 C 113.564 12.031 113.435 12.081 113.331 12.179 C 113.227 12.278 113.175 12.402 113.175 12.551 C 113.175 12.685 113.211 12.813 113.283 12.935 C 113.355 13.058 113.46 13.175 113.599 13.287 C 113.78 13.213 113.935 13.114 114.063 12.991 C 114.191 12.869 114.255 12.722 114.255 12.551 Z M 113.247 14.495 C 113.087 14.559 112.947 14.649 112.827 14.763 C 112.707 14.878 112.647 15.042 112.647 15.255 C 112.647 15.367 112.669 15.467 112.715 15.555 C 112.76 15.643 112.819 15.718 112.891 15.779 C 112.963 15.841 113.044 15.887 113.135 15.919 C 113.225 15.951 113.319 15.967 113.415 15.967 C 113.591 15.967 113.748 15.93 113.887 15.855 C 114.025 15.781 114.145 15.674 114.247 15.535 Z M 125.095 14.039 C 125.095 14.535 125.003 14.963 124.819 15.323 C 124.635 15.683 124.392 15.979 124.091 16.211 C 123.789 16.443 123.449 16.614 123.071 16.723 C 122.692 16.833 122.308 16.887 121.919 16.887 L 119.807 16.887 L 119.807 11.223 L 121.855 11.223 C 122.255 11.223 122.649 11.27 123.039 11.363 C 123.428 11.457 123.775 11.611 124.079 11.827 C 124.383 12.043 124.628 12.333 124.815 12.695 C 125.001 13.058 125.095 13.506 125.095 14.039 Z M 123.671 14.039 C 123.671 13.719 123.619 13.454 123.515 13.243 C 123.411 13.033 123.272 12.865 123.099 12.739 C 122.925 12.614 122.728 12.525 122.507 12.471 C 122.285 12.418 122.057 12.391 121.823 12.391 L 121.143 12.391 L 121.143 15.703 L 121.791 15.703 C 122.036 15.703 122.272 15.675 122.499 15.619 C 122.725 15.563 122.925 15.471 123.099 15.343 C 123.272 15.215 123.411 15.045 123.515 14.831 C 123.619 14.618 123.671 14.354 123.671 14.039 Z M 125.998 16.887 L 125.998 11.223 L 129.806 11.223 L 129.806 12.383 L 127.318 12.383 L 127.318 13.447 L 129.67 13.447 L 129.67 14.543 L 127.318 14.543 L 127.318 15.719 L 129.95 15.719 L 129.95 16.887 Z M 128.27 10.775 L 127.278 10.775 L 128.11 9.623 L 129.438 9.623 Z M 135.27 15.239 C 135.27 15.549 135.209 15.809 135.086 16.019 C 134.964 16.23 134.801 16.399 134.598 16.527 C 134.396 16.655 134.165 16.747 133.906 16.803 C 133.648 16.859 133.382 16.887 133.11 16.887 L 130.854 16.887 L 130.854 11.223 L 133.11 11.223 C 133.329 11.223 133.553 11.246 133.782 11.291 C 134.012 11.337 134.22 11.414 134.406 11.523 C 134.593 11.633 134.745 11.781 134.862 11.967 C 134.98 12.154 135.038 12.391 135.038 12.679 C 135.038 12.994 134.953 13.254 134.782 13.459 C 134.612 13.665 134.388 13.813 134.11 13.903 L 134.11 13.919 C 134.27 13.946 134.421 13.995 134.562 14.067 C 134.704 14.139 134.826 14.231 134.93 14.343 C 135.034 14.455 135.117 14.586 135.178 14.735 C 135.24 14.885 135.27 15.053 135.27 15.239 Z M 133.718 12.863 C 133.718 12.671 133.645 12.531 133.498 12.443 C 133.352 12.355 133.134 12.311 132.846 12.311 L 132.174 12.311 L 132.174 13.479 L 132.91 13.479 C 133.166 13.479 133.365 13.427 133.506 13.323 C 133.648 13.219 133.718 13.066 133.718 12.863 Z M 133.902 15.111 C 133.902 14.877 133.814 14.714 133.638 14.623 C 133.462 14.533 133.228 14.487 132.934 14.487 L 132.174 14.487 L 132.174 15.783 L 132.942 15.783 C 133.049 15.783 133.16 15.774 133.274 15.755 C 133.389 15.737 133.493 15.703 133.586 15.655 C 133.68 15.607 133.756 15.539 133.814 15.451 C 133.873 15.363 133.902 15.25 133.902 15.111 Z M 136.174 16.887 L 136.174 11.223 L 137.55 11.223 L 137.55 16.887 Z M 141.142 12.391 L 141.142 16.887 L 139.774 16.887 L 139.774 12.391 L 138.174 12.391 L 138.174 11.223 L 142.742 11.223 L 142.742 12.391 Z M 149.03 14.031 C 149.03 14.479 148.953 14.889 148.798 15.259 C 148.644 15.63 148.429 15.947 148.154 16.211 C 147.88 16.475 147.553 16.679 147.174 16.823 C 146.796 16.967 146.385 17.039 145.942 17.039 C 145.5 17.039 145.09 16.967 144.714 16.823 C 144.338 16.679 144.013 16.475 143.738 16.211 C 143.464 15.947 143.249 15.63 143.094 15.259 C 142.94 14.889 142.862 14.479 142.862 14.031 C 142.862 13.578 142.94 13.169 143.094 12.803 C 143.249 12.438 143.464 12.127 143.738 11.871 C 144.013 11.615 144.338 11.418 144.714 11.279 C 145.09 11.141 145.5 11.071 145.942 11.071 C 146.385 11.071 146.796 11.141 147.174 11.279 C 147.553 11.418 147.88 11.615 148.154 11.871 C 148.429 12.127 148.644 12.438 148.798 12.803 C 148.953 13.169 149.03 13.578 149.03 14.031 Z M 147.566 14.031 C 147.566 13.786 147.526 13.557 147.446 13.343 C 147.366 13.13 147.256 12.947 147.114 12.795 C 146.973 12.643 146.802 12.523 146.602 12.435 C 146.402 12.347 146.182 12.303 145.942 12.303 C 145.702 12.303 145.484 12.347 145.286 12.435 C 145.089 12.523 144.918 12.643 144.774 12.795 C 144.63 12.947 144.52 13.13 144.442 13.343 C 144.365 13.557 144.326 13.786 144.326 14.031 C 144.326 14.287 144.366 14.523 144.446 14.739 C 144.526 14.955 144.637 15.141 144.778 15.295 C 144.92 15.45 145.089 15.571 145.286 15.659 C 145.484 15.747 145.702 15.791 145.942 15.791 C 146.182 15.791 146.401 15.747 146.598 15.659 C 146.796 15.571 146.966 15.45 147.11 15.295 C 147.254 15.141 147.366 14.955 147.446 14.739 C 147.526 14.523 147.566 14.287 147.566 14.031 Z" style="fill: rgb(255, 255, 255); white-space: pre;"/>
      <g id="logo-venti-white" transform="translate(8.912556, 8.506849)" fill="#FFFFFF" fill-rule="nonzero">
        <path d="M4.33079164,9.98608788 C3.90352959,9.99031205 3.52281063,9.70699684 3.38964107,9.28572279 L0.0941960855,1.24918058 C0.0349232687,1.12305261 0.00278250834,0.985062529 0,0.84476809 C0.00200450601,0.618180421 0.0914172244,0.401872186 0.248253019,0.244191647 C0.405088813,0.0865111075 0.616271183,0.000605197643 0.834597575,0.00567522728 C1.21656385,-0.00533494075 1.56046295,0.244366023 1.68134948,0.620491516 L4.39845076,7.66828302 L7.15606649,0.565000404 C7.28431895,0.227084457 7.59892682,0.00514565887 7.94893419,0.00567522728 C8.16378079,0.000489088213 8.37165726,0.0849237535 8.52601643,0.240072822 C8.68037559,0.39522189 8.76832167,0.608123592 8.77016199,0.831105506 C8.76501074,0.955722515 8.73753241,1.07825346 8.6891331,1.19242831 L5.37971063,9.28572279 C5.24378625,9.71124057 4.8565214,9.99520959 4.42458258,9.98608788 L4.33079164,9.98608788 Z M32.4856977,9.06291757 L32.4856977,1.66746585 L30.1990625,1.66746585 C29.9222002,1.67213582 29.664421,1.52154827 29.5246743,1.27350677 C29.3849276,1.02546527 29.3849276,0.718511054 29.5246743,0.470469551 C29.664421,0.222428048 29.9222002,0.0718405078 30.1990625,0.0765104714 L36.4540877,0.0765104714 C36.87263,0.0835702175 37.2083612,0.437641624 37.2083612,0.871988161 C37.2083612,1.3063347 36.87263,1.66040611 36.4540877,1.66746585 L34.1536775,1.66746585 L34.1536775,9.06291757 C34.1465782,9.53553067 33.7753209,9.91479821 33.3197889,9.91479821 C32.8642569,9.91479821 32.4929996,9.53553067 32.4859003,9.06291757 L32.4856977,9.06291757 Z M19.5413324,9.07700055 L19.5413324,0.885335455 C19.5405762,0.655826334 19.6280802,0.435484854 19.7844462,0.273156996 C19.9408121,0.110829139 20.1531217,0.0199258937 20.3743094,0.0205989731 L20.5491293,0.0205989731 C20.9542737,0.0205989731 21.1809521,0.229741608 21.4100612,0.523171877 L26.1174346,6.84621584 L26.1174346,0.844557896 C26.1174346,0.37829558 26.4817098,0.000315290404 26.931066,0.000315290404 C27.3804222,0.000315290404 27.7446973,0.37829558 27.7446973,0.844557896 L27.7446973,9.04946518 C27.7493905,9.2741872 27.6665144,9.49137079 27.5148319,9.65184609 C27.3631494,9.8123214 27.1554892,9.90251614 26.938865,9.90201044 L26.8708008,9.90201044 C26.4810518,9.90201044 26.238978,9.69181683 26.0102739,9.38367301 L21.1687977,2.88196449 L21.1687977,9.07700055 C21.1617853,9.53818478 20.7994813,9.90823517 20.3549638,9.90823517 C19.9104463,9.90823517 19.5481423,9.53818478 19.5411299,9.07700055 L19.5413324,9.07700055 Z M38.9866457,9.06312777 L38.9866457,0.858430674 C38.9866457,0.384332504 39.3570427,0 39.8139506,0 C40.2708586,0 40.6412556,0.384332504 40.6412556,0.858430674 L40.6412556,9.06312777 C40.6412556,9.53722594 40.2708586,9.92155844 39.8139506,9.92155844 C39.3570427,9.92155844 38.9866457,9.53722594 38.9866457,9.06312777 Z M11.3164949,9.83516887 C10.8979525,9.82810912 10.5622213,9.47403772 10.5622213,9.03969118 C10.5622213,8.60534464 10.8979525,8.25127324 11.3164949,8.24421349 L16.8254466,8.24421349 C17.2439889,8.25127324 17.5797202,8.60534464 17.5797202,9.03969118 C17.5797202,9.47403772 17.2439889,9.82810912 16.8254466,9.83516887 L11.3164949,9.83516887 Z M11.3164949,5.75110717 C10.8930943,5.75110717 10.5498603,5.39495967 10.5498603,4.95562948 C10.5498603,4.51629928 10.8930943,4.16015179 11.3164949,4.16015179 L16.8254466,4.16015179 C17.2439889,4.16721153 17.5797202,4.52128294 17.5797202,4.95562948 C17.5797202,5.38997601 17.2439889,5.74404742 16.8254466,5.75110717 L11.3164949,5.75110717 Z M11.3164949,1.66725566 C10.8979525,1.66019591 10.5622213,1.30612451 10.5622213,0.871777968 C10.5622213,0.437431431 10.8979525,0.0833600239 11.3164949,0.0763002778 L16.8254466,0.0763002778 C17.2439889,0.0833600239 17.5797202,0.437431431 17.5797202,0.871777968 C17.5797202,1.30612451 17.2439889,1.66019591 16.8254466,1.66725566 L11.3164949,1.66725566 Z" id="Union_1"/>
      </g>
    </g>
  </g>
</svg>